<svg xmlns:xlink="http://www.w3.org/1999/xlink" xmlns="http://www.w3.org/2000/svg" width="75" height="137" viewBox="0 0 75 137" fill="none">
<g clip-path="url(#clip0_2010_128)">
<path fill-rule="evenodd" clip-rule="evenodd" d="M75 43.9269C65.3601 49.0308 56.8154 57.2377 49.9307 67.208C43.0459 77.1783 37.7949 88.8814 34.0611 101.266C31.1653 80.7689 20.9406 62.1272 6.80334 51.5699C11.2224 53.5527 15.4123 56.3292 19.2446 59.7564C19.7711 60.226 20.2916 60.7083 20.804 61.2034C26.7463 66.9401 31.734 74.2819 35.2427 82.6522C35.3533 82.4327 35.4658 82.2133 35.5783 81.9963C37.3267 78.6074 39.2257 75.3461 41.2634 72.2327C43.5704 68.706 46.0643 65.4447 48.7048 62.3849C49.3599 61.627 50.0251 60.8793 50.6983 60.1443C51.2007 59.5957 51.7071 59.0547 52.2196 58.5188C53.6323 57.0361 55.0792 55.6019 56.5582 54.2035C59.3033 51.6082 62.3779 49.4927 65.5209 47.7599C67.0602 46.9101 68.6337 46.1624 70.2333 45.5168C71.0331 45.1952 71.8389 44.8992 72.6508 44.6287C73.3964 44.3812 74.2946 44.2995 75 43.9269Z" fill="#B79145"/>
<path fill-rule="evenodd" clip-rule="evenodd" d="M52.3682 57.6333C52.3421 57.8298 52.3139 58.0288 52.2778 58.2253C52.2597 58.3248 52.2416 58.4218 52.2195 58.5188C51.7071 59.0547 51.2006 59.5957 50.6983 60.1443C52.2074 52.9531 52.1853 45.2539 50.638 38.078C49.4383 32.5097 47.3222 27.2681 44.4807 22.764C42.2219 19.1785 39.4226 16.0958 36.143 14.1028C35.2728 13.5745 34.4831 14.4473 33.7355 15.001C33.4763 15.1924 32.6745 15.8049 32.1379 16.2719C27.968 20.2707 24.3167 26.084 22.2629 32.1856C21.9715 33.0533 21.7022 33.9362 21.455 34.8294C20.6593 37.7079 20.1046 40.6911 19.7771 43.7126C19.4636 46.5963 19.2244 49.6636 19.5218 52.555C19.552 52.851 19.564 53.198 19.5841 53.4277C19.7389 55.1452 20.2875 59.2078 20.8039 61.2034C20.2915 60.7083 19.771 60.226 19.2445 59.7565C18.8305 57.6026 18.515 54.5429 18.3804 52.5856C17.9684 46.5886 18.6055 40.4742 20.2553 34.8294C20.6593 33.4514 21.1415 32.1091 21.6821 30.8101C22.5462 28.7329 23.5611 26.7577 24.6804 24.8897C25.8058 23.0115 27.0436 21.2379 28.374 19.5894C29.0211 18.7881 29.6902 18.0149 30.3815 17.2774C31.8043 15.7615 33.4863 14.6285 35.1241 13.5388C34.0309 12.8753 32.7388 12.5206 31.6355 12.1046C31.6355 12.1046 31.4426 12.0102 31.4305 12C32.1238 12 33.846 12.5691 34.5554 12.8702C35.3452 13.2045 35.4577 13.4571 35.9902 13.1739C36.7659 12.7656 38.7936 12.074 39.511 12.074L36.0485 13.5388C36.1309 13.6052 36.2153 13.6664 36.2997 13.7276C37.2904 14.4447 38.3153 14.9857 39.2759 15.7794C40.1782 16.5271 41.0443 17.3411 41.8722 18.2139C43.5281 19.9671 45.0273 21.9576 46.3415 24.1241C48.0155 26.8827 49.394 29.9272 50.435 33.1477C52.9148 40.8391 53.4795 49.4442 52.3682 57.6333Z" fill="#B79145"/>
<path fill-rule="evenodd" clip-rule="evenodd" d="M48.2909 39.6806C48.1803 39.1983 48.0819 38.7746 47.9814 38.3127L47.3042 35.7277C47.0369 34.86 46.8078 34.0485 46.4983 33.2319C46.3436 32.821 46.227 32.4638 46.0763 32.0835C45.377 30.3099 44.4144 28.2837 43.5121 26.6888C41.5749 23.2718 39.0911 20.6433 36.3199 18.3747C36.5912 18.1935 36.7901 18.0786 37.0494 17.9102C37.5236 17.604 40.5058 16.2795 40.7068 16.1035C40.3249 16.1035 39.4588 16.4071 39.2639 16.4582C38.657 16.6215 36.7218 17.4891 36.145 17.8617C36.0024 17.9561 35.8878 18.0888 35.723 18.0327C35.6507 18.0097 35.4116 17.8337 35.3392 17.7877C34.6339 17.3437 33.8662 17.0119 33.1106 16.7312C32.9338 16.6649 32.7549 16.596 32.5761 16.5475C32.4173 16.5016 31.1231 16.1775 30.7775 16.1775C30.88 16.2897 33.195 17.2288 33.5567 17.4126L35.2227 18.3747C34.3344 19.0305 33.7376 19.5332 33.0302 20.1712C32.3108 20.8194 31.6215 21.5263 30.9704 22.2867C29.4552 24.0603 28.1912 26.1299 27.0477 28.299C26.8387 28.6971 26.6639 29.0621 26.471 29.4755C25.7415 31.0526 25.1286 32.6705 24.5679 34.4594C24.2203 35.5643 23.7078 37.3838 23.4566 38.5475C22.3192 43.8504 21.9032 49.6917 22.5503 55.1809C22.5945 55.5586 22.6548 55.9311 22.7232 56.3037L23.3401 59.6391C23.3843 59.6926 23.3682 59.6799 23.4386 59.736C24.9256 60.6981 26.3564 61.7597 27.6667 63.0841C29.9596 65.4064 31.7903 68.2951 33.1729 71.5692L34.0008 73.7435C34.1696 74.2283 34.3485 74.7872 34.4731 75.267C34.6379 75.8973 35.2548 77.9567 35.289 78.4824H35.4055C35.6286 77.2677 36.7338 74.0905 37.2523 72.7661C37.3749 72.4497 37.4915 72.2276 37.6181 71.9112C38.5927 69.4741 39.8085 67.18 41.1931 65.0899C42.7163 62.7932 44.5269 60.8308 46.42 59.0445C46.6671 58.8122 46.9183 58.5877 47.1715 58.3708C47.6579 57.9497 48.1562 57.5567 48.6586 57.1739C48.6667 57.1663 48.6767 57.1612 48.6847 57.1535C48.6988 57.0106 48.7229 56.6763 48.743 56.3675C48.7651 56.0409 48.7832 55.7474 48.7832 55.7474C48.7953 55.6377 48.8073 55.5279 48.8194 55.4207C48.8736 54.918 48.9179 54.4153 48.958 53.91C49.1168 51.8608 49.2092 49.7912 49.1831 47.7318C49.151 45.0141 48.8937 42.2937 48.2909 39.6806ZM47.2358 57.2913C46.858 57.5414 46.4843 57.8068 46.1165 58.0798C43.5724 59.9708 41.2574 62.3517 39.2759 65.1206C38.4581 66.2638 37.6804 67.476 36.9469 68.7034C36.6454 69.2087 36.348 69.7166 36.0586 70.2346C35.8858 70.5408 35.5984 70.9262 35.5201 71.2987H35.4055C35.2628 70.523 33.9225 68.3411 33.4341 67.5704C32.5962 66.2536 31.6074 65.095 30.5504 64.0641C28.7981 62.3517 26.8247 61.0247 24.7307 60.1494L24.0515 56.3088C23.9852 55.9337 23.9249 55.556 23.8766 55.1783C23.8746 55.1554 23.8726 55.1324 23.8686 55.1094C23.7581 54.2265 23.6596 53.3435 23.6074 52.4478C23.4928 50.544 23.5049 48.6301 23.6094 46.7264C23.8927 41.5868 24.9337 36.529 26.7423 31.91C26.9734 31.3179 27.2165 30.7336 27.4697 30.1543L28.575 27.8933C28.9809 27.1558 29.3668 26.4846 29.7888 25.7675C30.3354 24.9178 30.89 24.0756 31.4909 23.282C32.1882 22.3582 32.9338 21.4931 33.7215 20.6943C34.1073 20.3013 34.5032 19.9262 34.9011 19.5536C35.092 19.375 35.2829 19.1964 35.4819 19.0305C35.5703 18.959 35.6889 18.834 35.7994 18.8161C36.1189 18.7676 36.7057 19.4694 36.9449 19.6787C37.4292 20.1023 37.9074 20.5336 38.3676 20.998C39.3141 21.9499 40.1983 23.037 41.0102 24.1496C42.2501 25.8492 42.658 26.6888 43.6186 28.5338C44.338 29.9195 45.16 32.1167 45.6644 33.7065C46.4501 36.1895 47.0771 39.0911 47.4207 41.7374C47.7081 43.9525 47.8267 46.2007 47.8126 48.4438C47.7985 50.6691 47.6056 52.8841 47.4549 55.1069C47.4408 55.3187 47.4247 55.533 47.4026 55.7474L47.268 57.2709C47.2579 57.276 47.2459 57.2836 47.2358 57.2913Z" fill="#00523C"/>
<path fill-rule="evenodd" clip-rule="evenodd" d="M48.6586 57.1739C48.1582 57.5643 47.6498 58.0492 47.1715 58.3707C47.6578 57.9497 48.1562 57.5567 48.6586 57.1739Z" fill="#00523C"/>
<path fill-rule="evenodd" clip-rule="evenodd" d="M25.0704 102.817C26.6941 102.817 26.1616 103.948 25.9948 105.237L24.4936 116.452C24.0676 119.714 23.6355 122.812 23.2798 126.124C23.1472 127.369 22.6669 128.418 21.6079 128.104L21.5396 128.837H24.2625C25.3517 128.837 26.2359 128.911 27.3231 128.911C27.3834 128.75 27.4336 128.49 27.4376 128.25C25.6772 128.25 25.8983 127.341 26.1073 125.386L28.2877 108.069C28.354 107.566 28.3942 107.079 28.4786 106.625L33.1368 120.719C33.2252 120.977 33.2815 121.099 33.3679 121.377L35.5784 128.173C36.6575 128.173 37.6724 128.099 38.8118 128.099C39.0188 126.966 39.6176 121.344 39.8246 119.711C39.901 119.111 39.9532 118.581 40.0316 117.996C40.1783 116.896 40.3109 115.779 40.4375 114.625C40.5561 113.541 40.7168 112.415 40.8495 111.262C40.9701 110.208 41.1208 109.031 41.2695 107.911C41.4242 106.745 41.5428 105.714 41.7136 104.588C41.9266 103.187 42.1477 102.81 43.3735 102.81C43.4639 102.59 43.5403 102.409 43.5463 102.077H37.8311C37.606 102.077 37.59 102.483 37.5417 102.738L38.5224 102.96C39.4568 103.205 39.0067 104.264 38.8037 105.806C38.7153 106.479 38.6249 107.181 38.5184 107.863L36.7339 120.403L30.9604 102.297L28.1289 102.154C27.7089 102.111 27.1241 102.149 26.6881 102.151C26.1696 102.154 25.8099 102.077 25.2452 102.077C25.1548 102.297 25.0784 102.478 25.0724 102.81" fill="#00523C"/>
<path fill-rule="evenodd" clip-rule="evenodd" d="M47.5292 103.698C47.5292 104.203 47.0348 106.607 46.9303 107.186L45.176 117.271C44.9067 118.726 44.9951 119.282 44.0104 119.897C43.4598 120.242 43.3091 119.93 43.1443 120.344C43.1343 120.367 43.0559 120.701 43.0579 120.719C43.088 120.941 43.2066 120.854 43.719 120.849H49.38C49.9346 120.849 50.2964 121.02 50.8791 120.849C50.8852 120.528 50.9173 120.622 50.9374 120.336C49.8844 119.696 48.9419 120.405 49.39 118.006C49.4343 117.769 49.4986 117.394 49.5367 117.167C49.6392 116.554 49.7417 116.011 49.8342 115.419C50.3265 112.316 51.1223 108.1 51.687 105.017C51.8799 105.017 52.0186 104.971 52.1411 104.974L54.2874 105.086C54.4682 105.104 54.6792 105.086 54.8641 105.086C55.7021 105.096 56.7812 105.548 57.1912 106.456C57.8222 107.85 57.3962 109.562 56.3452 110.271C55.8729 110.59 55.2479 110.81 54.6551 110.983C54.0502 111.16 53.3529 111.348 52.7681 111.448C52.3883 111.512 52.0989 111.565 51.7453 111.616C51.4418 111.66 51.0057 111.762 50.7063 111.762L52.4285 115.072C52.6496 115.447 52.8184 115.824 53.0274 116.217L54.8239 120.385C54.9103 120.622 54.9344 120.923 55.1515 120.923H61.1561C61.3349 120.923 61.3028 120.839 61.3369 120.64C61.355 120.54 61.3791 120.3 61.3872 120.191C60.3884 120.191 60.1191 119.816 59.6047 118.935L56.1904 112.714L58.2362 111.866C59.4258 111.267 60.6054 110.266 61.361 108.947C62.3678 107.189 62.4623 104.461 60.7099 103.236C59.9664 102.715 58.9938 102.302 57.8624 102.307L46.5465 102.233C46.3556 102.233 46.3275 102.534 46.3456 102.784C46.3636 103.06 46.44 102.937 46.7414 103.009C47.1172 103.101 47.5272 103.177 47.5272 103.698" fill="#00523C"/>
<path fill-rule="evenodd" clip-rule="evenodd" d="M15.6032 116.013C15.6032 117.251 15.1471 117.8 14.1704 118.297C12.5025 119.147 8.62201 119.15 7.23943 117.835C6.50594 117.139 5.94527 115.947 5.9091 114.76C5.89101 114.189 5.99149 114.252 5.27005 114.252C5.04699 114.252 5.08115 114.61 5.05503 114.857C5.02087 115.181 5.0068 115.317 4.97063 115.631L4.40393 120.262L7.36402 121.048C11.1641 121.755 15.1672 121.793 18.3483 118.767C19.2466 117.912 20.4503 116.274 20.4503 114.62C20.4503 113.569 20.3941 113.114 19.8615 112.29C19.6947 112.03 19.7088 112.063 19.5159 111.851C17.7736 109.922 13.447 109.496 11.2967 108.36C8.72651 107.003 12.5547 102.052 18.1192 104.974C18.483 105.165 19.0275 105.676 19.2486 106.03C20.0464 107.309 19.5159 108.13 19.8153 108.095L20.6211 108.008C20.6211 107.566 20.7075 107.138 20.7377 106.701C20.7698 106.209 20.8221 105.824 20.8603 105.316C20.9246 104.443 21.0853 103.547 21.0853 102.595C20.6151 102.31 21.5114 102.021 20.9306 101.914C17.235 101.238 9.43588 101.843 6.86967 105.068C5.28613 107.059 5.38661 110.215 7.28967 111.609C8.52756 112.515 11.974 113.165 13.3666 113.862C13.9514 114.153 15.6012 114.898 15.6012 116.011" fill="#00523C"/>
<path fill-rule="evenodd" clip-rule="evenodd" d="M13.1797 123.416V128.033C13.1797 128.454 13.0872 128.558 13.0631 128.913C13.3103 128.913 13.9654 129.031 14.1081 128.849C14.1945 128.74 14.088 128.564 14.0619 128.385L14.0458 124.807L14.3472 125.305C14.4538 125.506 14.5221 125.634 14.6326 125.823L16.2362 128.699C16.4211 128.995 16.3689 128.913 17.0481 128.913C17.3395 128.913 17.1626 128.632 17.1626 128.326V123.194C17.1626 122.574 17.7715 122.607 16.182 122.607C16.19 123.011 16.2101 122.786 16.2704 123.082C16.3327 123.383 16.2985 126.836 16.2985 127.226L15.0285 124.953C14.8215 124.555 14.6005 124.2 14.3834 123.794C14.2729 123.59 14.1644 123.452 14.0699 123.238C13.7705 122.556 14.2327 122.607 13.0651 122.607C12.6813 122.607 13.1817 123.194 13.1817 123.414" fill="#00523C"/>
<path fill-rule="evenodd" clip-rule="evenodd" d="M12.2553 126.129V125.468C12.2553 124.054 11.1179 122.61 10.0046 122.61H9.48412C8.49541 122.61 7.67752 123.679 7.41225 124.598C7.0445 125.879 7.39015 127.295 7.96689 128.056C9.48211 130.054 12.2553 128.525 12.2553 126.129ZM8.21407 125.836C8.21407 125.198 8.15177 124.284 8.49541 123.848C8.82699 123.427 9.31129 123.416 9.77148 123.416C10.5874 123.416 11.3289 124.616 11.3289 125.688C11.3289 126.759 11.2344 128.181 10.1734 128.181C9.33139 128.181 8.72048 127.706 8.40096 126.839C8.29847 126.563 8.21005 126.211 8.21005 125.836H8.21407Z" fill="#00523C"/>
<path fill-rule="evenodd" clip-rule="evenodd" d="M52.6657 128.987C53.0515 128.987 53.2444 128.987 53.6082 128.791C53.8594 128.658 53.988 128.472 54.2251 128.4C53.9478 129.13 54.2492 128.987 55.0329 128.987C55.3685 128.987 55.0329 128.763 55.0329 128.033C55.0329 126.912 54.9264 123.917 55.1354 123.016C55.2359 122.579 55.0993 122.684 54.2251 122.684C53.8915 122.684 54.1668 123.12 54.1668 123.49V127.155C54.1668 128.285 52.1472 128.921 52.1472 127.081C52.1472 126.213 52.0608 123.687 52.2396 123.003C52.2939 122.794 52.3281 122.909 52.2718 122.783C52.1995 122.625 51.6207 122.684 51.3976 122.684C51.0078 122.684 51.1645 122.847 51.2369 123.174C51.4559 124.164 51.0058 127.208 51.5443 128.214C51.7493 128.597 52.1994 128.987 52.6677 128.987" fill="#00523C"/>
<path fill-rule="evenodd" clip-rule="evenodd" d="M47.0671 123.636V128.033C47.0671 128.528 46.9586 128.633 46.8943 128.987H48.0498C48.0156 128.459 47.9292 128.931 47.9332 127.742C47.9332 127.277 47.9332 126.813 47.9332 126.349L48.928 128.017C49.8403 129.189 49.4987 128.987 50.4733 128.987C50.4372 128.816 49.7921 127.882 49.6394 127.627C49.3359 127.114 49.1269 126.642 48.8556 126.129C49.1973 125.899 49.2294 125.927 49.5067 125.563C50.0895 124.8 49.8966 123.531 49.0586 123.011C48.5642 122.704 47.1173 122.572 46.9606 122.753C46.8018 122.934 47.0651 122.845 47.0651 123.636M47.9332 125.762V123.416C49.2937 123.559 49.2173 125.762 47.9332 125.762Z" fill="#00523C"/>
<path fill-rule="evenodd" clip-rule="evenodd" d="M18.0289 124.297C18.0289 126.216 19.7611 126.075 19.7611 127.448C19.7611 127.992 19.2004 128.474 18.5011 127.877C18.3203 127.721 18.2781 127.586 18.0871 127.522C18.0871 127.836 18.0188 128.41 18.1314 128.638C18.2841 128.939 20.6835 129.544 20.6835 127.081C20.6835 126.098 19.938 125.667 19.4717 125.249C18.4448 124.333 19.0497 123.416 19.5863 123.416C19.7933 123.416 19.9802 123.501 20.1269 123.61C20.374 123.794 20.2776 123.899 20.5669 123.929C20.5669 123.465 20.5107 123.317 20.5107 122.829C20.0344 122.689 20.2936 122.61 19.528 122.61C18.7081 122.61 18.0269 123.49 18.0269 124.297" fill="#00523C"/>
<path fill-rule="evenodd" clip-rule="evenodd" d="M4.0003 124.223C4.0003 126.52 5.67427 125.795 5.67427 127.594C5.67427 127.931 5.19599 128.209 4.89858 128.143C4.51475 128.058 4.3158 127.739 4.05858 127.52V128.694C4.69159 128.88 4.22336 128.913 5.21408 128.913C6.04202 128.913 6.59867 128.229 6.59867 127.081C6.59867 125.435 4.86642 125.565 4.86642 124.149C4.86642 123.649 5.20805 123.416 5.61599 123.416C5.9737 123.416 6.1847 123.83 6.48212 123.929C6.48212 123.608 6.54843 123.039 6.40977 122.845C6.09025 122.398 3.99829 122.431 3.99829 124.22" fill="#00523C"/>
<path fill-rule="evenodd" clip-rule="evenodd" d="M56.303 124.297C56.303 125.187 56.4316 125.524 57.0606 126.119C57.6977 126.721 57.977 126.696 57.977 127.668C57.977 127.984 57.5188 128.296 57.2013 128.219C56.7713 128.114 56.6326 127.826 56.3593 127.594V128.768C56.9019 129.1 57.9911 129.12 58.4834 128.533C59.0923 127.808 59.0843 126.527 58.1719 125.731C57.5751 125.21 57.1671 125.032 57.1671 124.22C57.1671 123.802 57.4706 123.488 57.8022 123.488C58.3448 123.488 58.4171 123.891 58.7828 124.001C58.7587 123.631 58.7246 123.383 58.7246 122.901C58.2503 122.761 58.5075 122.681 57.7439 122.681C57.0225 122.681 56.301 123.401 56.301 124.294" fill="#00523C"/>
<path fill-rule="evenodd" clip-rule="evenodd" d="M59.1907 123.855C59.3997 123.794 59.5464 123.667 59.7935 123.592C60.0709 123.513 60.2638 123.488 60.5773 123.488C60.5773 124.299 60.6275 127.864 60.527 128.411C60.4708 128.722 60.4225 128.694 60.4044 128.987H61.5579C61.5338 128.627 61.4434 128.719 61.4434 128.4V123.488C62.2311 123.488 62.1488 123.661 62.5969 123.707C62.84 122.385 63.5474 122.681 59.5946 122.681C59.3173 122.681 59.1947 123.58 59.1907 123.853" fill="#00523C"/>
<path fill-rule="evenodd" clip-rule="evenodd" d="M42.5054 123.855C42.7144 123.794 42.8591 123.666 43.1082 123.592C43.3856 123.513 43.5785 123.488 43.892 123.488C43.892 124.315 43.9422 127.928 43.8417 128.482C43.7895 128.768 43.7634 128.742 43.7191 128.985H44.8726C44.8505 128.643 44.7581 128.622 44.7581 128.252V123.488C45.5458 123.488 45.4635 123.661 45.9136 123.707C46.0121 123.444 46.0864 123.069 46.1447 122.753C45.586 122.587 43.6187 122.681 42.9113 122.681C42.6259 122.681 42.5094 123.723 42.5074 123.853" fill="#00523C"/>
<path d="M35.5864 41.7655C36.4088 41.7655 37.0755 40.9188 37.0755 39.8745C37.0755 38.8301 36.4088 37.9835 35.5864 37.9835C34.764 37.9835 34.0973 38.8301 34.0973 39.8745C34.0973 40.9188 34.764 41.7655 35.5864 41.7655Z" fill="#812166"/>
<path d="M34.4992 46.1318C34.8248 46.3513 35.1765 46.4636 35.5442 46.4636C36.3661 46.4636 37.1378 45.8996 37.5578 44.9911L39.7563 40.2446L38.7796 39.5326L36.6173 44.3532C36.4043 44.815 36.0185 45.0932 35.5844 45.0932C35.1503 45.0932 34.7946 44.8329 34.5756 44.3889L32.3932 39.5351L31.4146 40.2497L33.619 45.0932C33.8341 45.5347 34.1375 45.8945 34.4972 46.1369L34.4992 46.1318Z" fill="#B79145"/>
<path d="M37.0782 57.8473C37.0898 56.8031 36.4326 55.9446 35.6103 55.9298C34.7879 55.915 34.1119 56.7496 34.1003 57.7939C34.0886 58.8381 34.7458 59.6966 35.5682 59.7114C36.3905 59.7261 37.0665 58.8916 37.0782 57.8473Z" fill="#812166"/>
<path d="M36.6756 51.5597C36.3501 51.3403 35.9984 51.228 35.6306 51.228C34.8087 51.228 34.037 51.7919 33.617 52.7004L31.4186 57.447L32.3952 58.159L34.5575 53.3384C34.7705 52.8765 35.1564 52.5983 35.5904 52.5983C36.0245 52.5983 36.3802 52.8586 36.5992 53.3027L38.7816 58.1564L39.7603 57.4419L37.5558 52.5983C37.3408 52.1569 37.0373 51.797 36.6776 51.5546L36.6756 51.5597Z" fill="#B79145"/>
<path d="M42.7006 50.7364C43.5226 50.702 44.1669 49.8279 44.1398 48.7841C44.1127 47.7403 43.4244 46.9221 42.6024 46.9566C41.7805 46.991 41.1361 47.8651 41.1632 48.9089C41.1904 49.9526 41.8787 50.7709 42.7006 50.7364Z" fill="#812166"/>
<path d="M37.7245 47.4639C37.5517 47.8773 37.4633 48.3239 37.4633 48.7909C37.4633 49.8346 37.9074 50.8145 38.6228 51.3479L42.3606 54.1397L42.9212 52.8994L39.1252 50.1536C38.7614 49.8831 38.5424 49.3931 38.5424 48.8419C38.5424 48.2907 38.7474 47.839 39.097 47.5608L42.9192 44.7895L42.3566 43.5467L38.5424 46.3461C38.1947 46.6192 37.9114 47.0045 37.7205 47.4613L37.7245 47.4639Z" fill="#B79145"/>
<path d="M28.5775 50.7394C29.3992 50.6979 30.0388 49.8182 30.0061 48.7747C29.9734 47.7312 29.2807 46.9189 28.459 46.9605C27.6372 47.002 26.9976 47.8817 27.0303 48.9252C27.063 49.9687 27.7557 50.781 28.5775 50.7394Z" fill="#812166"/>
<path d="M33.4482 50.2276C33.621 49.8142 33.7094 49.3676 33.7094 48.9006C33.7094 47.8569 33.2653 46.877 32.5499 46.3436L28.8121 43.5518L28.2515 44.792L32.0475 47.5379C32.4113 47.8084 32.6303 48.2984 32.6303 48.8496C32.6303 49.4008 32.4253 49.8525 32.0757 50.1306L28.2535 52.902L28.8162 54.1448L32.6303 51.3454C32.978 51.0723 33.2613 50.687 33.4522 50.2302L33.4482 50.2276Z" fill="#B79145"/>
</g>
<defs>
<clipPath id="clip0_2010_128">
<rect width="71" height="117" fill="white" transform="translate(4 12)"/>
</clipPath>
</defs>
</svg>