<svg xmlns:xlink="http://www.w3.org/1999/xlink" xmlns="http://www.w3.org/2000/svg" width="320" height="85" viewBox="0 0 320 85" fill="none">
<g clip-path="url(#clip0_2002_100)">
<path d="M109.817 34.3864C110.518 34.3864 111.084 34.3101 111.522 34.1551C112.351 33.8598 112.764 33.3112 112.764 32.5066C112.764 32.0367 112.558 31.675 112.147 31.4191C111.736 31.1681 111.091 30.9467 110.21 30.7548L108.707 30.4177C107.231 30.0831 106.21 29.7214 105.644 29.3302C104.687 28.6757 104.209 27.6497 104.209 26.2571C104.209 24.9851 104.672 23.9296 105.597 23.0881C106.522 22.2467 107.88 21.8259 109.672 21.8259C111.167 21.8259 112.444 22.2221 113.5 23.0168C114.555 23.809 115.112 24.9605 115.163 26.4712H112.312C112.26 25.6174 111.888 25.0097 111.195 24.6505C110.732 24.4118 110.156 24.2937 109.47 24.2937C108.705 24.2937 108.094 24.4487 107.639 24.7563C107.184 25.0638 106.955 25.4944 106.955 26.048C106.955 26.5549 107.179 26.9338 107.629 27.1847C107.92 27.352 108.535 27.5489 109.48 27.7728L111.928 28.3608C113 28.6167 113.81 28.9611 114.356 29.3917C115.205 30.0609 115.628 31.0254 115.628 32.2925C115.628 33.5597 115.131 34.6668 114.14 35.5255C113.148 36.3842 111.746 36.8123 109.935 36.8123C108.124 36.8123 106.63 36.3891 105.57 35.5452C104.51 34.7013 103.981 33.54 103.981 32.0637H106.813C106.904 32.7133 107.078 33.198 107.342 33.5178C107.824 34.1034 108.648 34.3937 109.817 34.3937V34.3864Z" fill="#03523C"/>
<path d="M123.853 30.8702H120.79V36.4381H117.889V22.2366H124.855C125.851 22.2563 126.616 22.3768 127.153 22.6032C127.689 22.8271 128.144 23.1592 128.516 23.5947C128.823 23.9539 129.067 24.3525 129.247 24.788C129.426 25.226 129.517 25.723 129.517 26.2815C129.517 26.9557 129.347 27.62 129.005 28.272C128.666 28.924 128.102 29.3841 127.32 29.6547C127.975 29.918 128.44 30.292 128.713 30.7767C128.986 31.2614 129.121 32.002 129.121 32.9984V33.9531C129.121 34.6026 129.146 35.0406 129.197 35.2719C129.274 35.6385 129.453 35.9066 129.736 36.0813V36.4381H126.469C126.378 36.1232 126.316 35.8697 126.277 35.6778C126.201 35.2792 126.159 34.8708 126.151 34.455L126.132 33.1362C126.119 32.2308 125.955 31.628 125.635 31.3254C125.317 31.0227 124.722 30.8726 123.848 30.8726L123.853 30.8702ZM125.654 28.2867C126.245 28.0161 126.54 27.4846 126.54 26.6875C126.54 25.8263 126.255 25.2481 125.684 24.9529C125.362 24.7856 124.882 24.7019 124.237 24.7019H120.788V28.518H124.151C124.818 28.518 125.32 28.4417 125.654 28.2867Z" fill="#03523C"/>
<path d="M131.84 22.2366H134.788V36.4381H131.84V22.2366Z" fill="#03523C"/>
<path d="M146.302 30.8702H143.239V36.4381H140.338V22.2366H147.304C148.298 22.2563 149.065 22.3768 149.602 22.6032C150.138 22.8271 150.593 23.1592 150.965 23.5947C151.272 23.9539 151.518 24.3525 151.698 24.788C151.877 25.226 151.969 25.723 151.969 26.2815C151.969 26.9557 151.799 27.62 151.459 28.272C151.12 28.924 150.556 29.3841 149.774 29.6547C150.428 29.918 150.893 30.292 151.166 30.7767C151.44 31.2614 151.575 32.002 151.575 32.9984V33.9531C151.575 34.6026 151.599 35.0406 151.651 35.2719C151.727 35.6385 151.907 35.9066 152.19 36.0813V36.4381H148.925C148.834 36.1232 148.77 35.8697 148.733 35.6778C148.657 35.2792 148.615 34.8708 148.608 34.455L148.588 33.1362C148.576 32.2308 148.411 31.628 148.091 31.3254C147.774 31.0227 147.178 30.8726 146.305 30.8726L146.302 30.8702ZM148.103 28.2867C148.694 28.0161 148.989 27.4846 148.989 26.6875C148.989 25.8263 148.704 25.2481 148.133 24.9529C147.813 24.7856 147.331 24.7019 146.688 24.7019H143.239V28.518H146.6C147.267 28.518 147.769 28.4417 148.103 28.2867Z" fill="#03523C"/>
<path d="M162.834 33.5176H157.603L156.621 36.4357H153.519L158.587 22.2341H161.941L166.97 36.4357H163.752L162.836 33.5176H162.834ZM162.007 31.0719L160.233 25.4843L158.403 31.0719H162.005H162.007Z" fill="#03523C"/>
<path d="M171.487 36.4381H168.722V22.2366H173.037L175.618 33.4019L178.182 22.2366H182.451V36.4381H179.685V26.8326C179.685 26.5571 179.688 26.1708 179.695 25.6713C179.702 25.1743 179.705 24.7905 179.705 24.5198L177.016 36.4381H174.134L171.465 24.5198C171.465 24.7905 171.467 25.1743 171.475 25.6713C171.482 26.1683 171.485 26.5571 171.485 26.8326V36.4381H171.487Z" fill="#03523C"/>
<path d="M193.52 33.5176H188.289L187.308 36.4357H184.205L189.273 22.2341H192.625L197.654 36.4357H194.435L193.52 33.5176ZM192.691 31.0719L190.917 25.4843L189.086 31.0719H192.688H192.691Z" fill="#03523C"/>
<path d="M212.037 36.4381H208.221L203.836 30.2329L202.419 31.6871V36.4357H199.499V22.2341H202.419V28.0825L207.901 22.2341H211.734L205.916 28.0825L212.035 36.4357L212.037 36.4381Z" fill="#03523C"/>
<path d="M219.733 30.8702H216.67V36.4381H213.769V22.2366H220.735C221.729 22.2563 222.496 22.3768 223.033 22.6032C223.569 22.8271 224.024 23.1592 224.396 23.5947C224.703 23.9539 224.949 24.3525 225.129 24.788C225.309 25.226 225.4 25.723 225.4 26.2815C225.4 26.9557 225.23 27.62 224.89 28.272C224.551 28.924 223.987 29.3841 223.205 29.6547C223.859 29.918 224.324 30.292 224.598 30.7767C224.871 31.2614 225.006 32.002 225.006 32.9984V33.9531C225.006 34.6026 225.031 35.0406 225.082 35.2719C225.159 35.6385 225.338 35.9066 225.621 36.0813V36.4381H222.356C222.265 36.1232 222.201 35.8697 222.164 35.6778C222.088 35.2792 222.046 34.8708 222.039 34.455L222.019 33.1362C222.007 32.2308 221.842 31.628 221.522 31.3254C221.205 31.0227 220.609 30.8726 219.736 30.8726L219.733 30.8702ZM221.537 28.2867C222.127 28.0161 222.423 27.4846 222.423 26.6875C222.423 25.8263 222.137 25.2481 221.566 24.9529C221.246 24.7856 220.764 24.7019 220.122 24.7019H216.673V28.518H220.033C220.7 28.518 221.202 28.4417 221.537 28.2867Z" fill="#03523C"/>
<path d="M227.72 22.2366H230.667V36.4381H227.72V22.2366Z" fill="#03523C"/>
<path d="M238.588 34.3864C239.289 34.3864 239.855 34.3101 240.293 34.1551C241.122 33.8598 241.535 33.3112 241.535 32.5066C241.535 32.0367 241.328 31.675 240.918 31.4191C240.507 31.1681 239.862 30.9467 238.981 30.7548L237.478 30.4177C236.002 30.0831 234.981 29.7214 234.415 29.3302C233.458 28.6757 232.98 27.6497 232.98 26.2571C232.98 24.9851 233.443 23.9296 234.368 23.0881C235.293 22.2467 236.651 21.8259 238.442 21.8259C239.938 21.8259 241.215 22.2221 242.271 23.0168C243.326 23.809 243.882 24.9605 243.934 26.4712H241.082C241.031 25.6174 240.659 25.0097 239.965 24.6505C239.503 24.4118 238.927 24.2937 238.241 24.2937C237.475 24.2937 236.865 24.4487 236.41 24.7563C235.955 25.0638 235.726 25.4944 235.726 26.048C235.726 26.5549 235.95 26.9338 236.4 27.1847C236.691 27.352 237.306 27.5489 238.251 27.7728L240.699 28.3608C241.771 28.6167 242.581 28.9611 243.127 29.3917C243.976 30.0609 244.399 31.0254 244.399 32.2925C244.399 33.5597 243.902 34.6668 242.911 35.5255C241.919 36.3842 240.517 36.8123 238.706 36.8123C236.895 36.8123 235.401 36.3891 234.341 35.5452C233.28 34.7013 232.751 33.54 232.751 32.0637H235.583C235.674 32.7133 235.849 33.198 236.112 33.5178C236.595 34.1034 237.419 34.3937 238.588 34.3937V34.3864Z" fill="#03523C"/>
<path d="M255.063 36.4381V30.1001H249.514V36.4381H246.577V22.2366H249.514V27.6519H255.063V22.2366H258.01V36.4381H255.063Z" fill="#03523C"/>
<path d="M272.327 36.4381H269.36L263.561 26.3504V36.4381H260.795V22.2366H263.908L269.562 32.1496V22.2366H272.327V36.4381Z" fill="#03523C"/>
<path d="M283.406 33.5176H278.176L277.194 36.4357H274.091L279.16 22.2341H282.511L287.54 36.4357H284.322L283.406 33.5176ZM282.577 31.0719L280.803 25.4843L278.973 31.0719H282.575H282.577Z" fill="#03523C"/>
<path d="M109.991 46.5256H105.853V48.7154H110.57V50.2482H104.113V41.7278H110.363V43.236H105.853V45.0444H109.991V46.5231V46.5256Z" fill="#03523C"/>
<path d="M118.846 50.2482H117.065L113.586 44.1956V50.2482H111.928V41.7278H113.795L117.188 47.6771V41.7278H118.846V50.2482Z" fill="#03523C"/>
<path d="M125.731 50.0418C125.261 50.3296 124.683 50.4748 123.996 50.4748C122.867 50.4748 121.942 50.0836 121.221 49.3012C120.47 48.5163 120.094 47.4411 120.094 46.0756C120.094 44.71 120.473 43.5905 121.233 42.7565C121.993 41.9248 122.997 41.509 124.245 41.509C125.327 41.509 126.198 41.7846 126.855 42.3333C127.512 42.8819 127.888 43.5684 127.984 44.3877H126.233C126.097 43.8071 125.768 43.3986 125.244 43.1674C124.951 43.0394 124.626 42.9754 124.267 42.9754C123.58 42.9754 123.017 43.2338 122.576 43.7529C122.136 44.2721 121.915 45.0496 121.915 46.0903C121.915 47.1311 122.153 47.8815 122.631 48.317C123.108 48.7525 123.652 48.969 124.259 48.969C124.867 48.969 125.347 48.7968 125.728 48.4523C126.11 48.1079 126.346 47.6552 126.434 47.0966H124.464V45.6745H128.014V50.246H126.835L126.656 49.1831C126.314 49.5866 126.004 49.872 125.731 50.0393V50.0418Z" fill="#03523C"/>
<path d="M129.576 41.7278H131.345V50.2482H129.576V41.7278Z" fill="#03523C"/>
<path d="M139.893 50.2482H138.111L134.632 44.1956V50.2482H132.974V41.7278H134.842L138.234 47.6771V41.7278H139.893V50.2482Z" fill="#03523C"/>
<path d="M147.483 46.5256H143.345V48.7154H148.061V50.2482H141.605V41.7278H147.855V43.236H143.347V45.0444H147.486V46.5231L147.483 46.5256Z" fill="#03523C"/>
<path d="M155.379 46.5256H151.24V48.7154H155.957V50.2482H149.501V41.7278H155.75V43.236H151.24V45.0444H155.379V46.5231V46.5256Z" fill="#03523C"/>
<path d="M160.964 46.907H159.126V50.2482H157.386V41.7278H161.567C162.164 41.7401 162.622 41.8114 162.944 41.9468C163.267 42.0821 163.54 42.2789 163.761 42.5422C163.946 42.7587 164.093 42.9974 164.202 43.2582C164.31 43.519 164.364 43.8191 164.364 44.1538C164.364 44.5597 164.261 44.9559 164.057 45.3471C163.852 45.7383 163.515 46.0138 163.045 46.1762C163.439 46.3337 163.717 46.5576 163.879 46.8504C164.044 47.1407 164.125 47.586 164.125 48.1839V48.7572C164.125 49.1459 164.14 49.4092 164.172 49.5495C164.219 49.7684 164.327 49.9308 164.495 50.0342V50.2482H162.536C162.482 50.0588 162.443 49.9062 162.42 49.7906C162.374 49.5519 162.349 49.3059 162.347 49.0574L162.334 48.2651C162.327 47.7214 162.226 47.3597 162.037 47.1776C161.845 46.9955 161.488 46.907 160.964 46.907ZM162.044 45.3594C162.398 45.197 162.575 44.8771 162.575 44.3998C162.575 43.8831 162.403 43.5362 162.061 43.359C161.869 43.2582 161.579 43.209 161.195 43.209H159.126V45.4971H161.143C161.544 45.4971 161.845 45.4504 162.044 45.3594Z" fill="#03523C"/>
<path d="M165.754 41.7278H167.523V50.2482H165.754V41.7278Z" fill="#03523C"/>
<path d="M176.073 50.2482H174.292L170.813 44.1956V50.2482H169.155V41.7278H171.022L174.415 47.6771V41.7278H176.073V50.2482Z" fill="#03523C"/>
<path d="M182.957 50.0418C182.488 50.3296 181.909 50.4748 181.223 50.4748C180.094 50.4748 179.168 50.0836 178.448 49.3012C177.697 48.5163 177.321 47.4411 177.321 46.0756C177.321 44.71 177.7 43.5905 178.46 42.7565C179.22 41.9248 180.224 41.509 181.471 41.509C182.554 41.509 183.425 41.7846 184.082 42.3333C184.739 42.8819 185.115 43.5684 185.211 44.3877H183.459C183.324 43.8071 182.994 43.3986 182.47 43.1674C182.178 43.0394 181.853 42.9754 181.494 42.9754C180.807 42.9754 180.244 43.2338 179.803 43.7529C179.363 44.2721 179.141 45.0496 179.141 46.0903C179.141 47.1311 179.38 47.8815 179.857 48.317C180.335 48.7525 180.878 48.969 181.486 48.969C182.094 48.969 182.574 48.7968 182.955 48.4523C183.336 48.1079 183.573 47.6552 183.661 47.0966H181.69V45.6745H185.241V50.246H184.062L183.883 49.1831C183.541 49.5866 183.231 49.872 182.957 50.0393V50.0418Z" fill="#03523C"/>
<path d="M196.241 49.6137C195.606 50.1943 194.792 50.4871 193.803 50.4871C192.578 50.4871 191.613 50.0935 190.912 49.3086C190.211 48.5188 189.859 47.4362 189.859 46.0608C189.859 44.5723 190.257 43.4257 191.055 42.6212C191.748 41.92 192.632 41.5681 193.702 41.5681C195.136 41.5681 196.185 42.0381 196.846 42.9779C197.213 43.5069 197.41 44.0359 197.437 44.5674H195.656C195.54 44.1589 195.392 43.8514 195.21 43.6422C194.886 43.2732 194.406 43.0862 193.771 43.0862C193.136 43.0862 192.612 43.347 192.241 43.8686C191.867 44.3902 191.68 45.1308 191.68 46.0854C191.68 47.0401 191.876 47.7561 192.273 48.2334C192.669 48.7082 193.168 48.9469 193.778 48.9469C194.389 48.9469 194.878 48.7427 195.205 48.3343C195.385 48.1153 195.538 47.7856 195.656 47.3452H197.42C197.265 48.2728 196.874 49.0281 196.241 49.6112V49.6137Z" fill="#03523C"/>
<path d="M202.547 50.4871C201.329 50.4871 200.399 50.155 199.755 49.4931C198.891 48.6812 198.461 47.5076 198.461 45.9796C198.461 44.4517 198.891 43.2486 199.755 42.4662C200.399 41.8043 201.329 41.4722 202.547 41.4722C203.765 41.4722 204.695 41.8043 205.34 42.4662C206.199 43.2486 206.629 44.4197 206.629 45.9796C206.629 47.5396 206.199 48.6812 205.34 49.4931C204.695 50.155 203.765 50.4871 202.547 50.4871ZM204.23 48.1965C204.644 47.6773 204.848 46.9368 204.848 45.9772C204.848 45.0176 204.641 44.282 204.225 43.7604C203.812 43.2387 203.251 42.9779 202.547 42.9779C201.844 42.9779 201.28 43.2387 200.859 43.7579C200.439 44.277 200.23 45.0176 200.23 45.9772C200.23 46.9368 200.439 47.6773 200.859 48.1965C201.28 48.7156 201.841 48.9764 202.547 48.9764C203.253 48.9764 203.812 48.7156 204.23 48.1965Z" fill="#03523C"/>
<path d="M207.987 41.7278H209.769V48.7154H213.988V50.2482H207.987V41.7278Z" fill="#03523C"/>
<path d="M215.219 41.7278H217V48.7154H221.219V50.2482H215.219V41.7278Z" fill="#03523C"/>
<path d="M228.382 46.5256H224.243V48.7154H228.96V50.2482H222.504V41.7278H228.753V43.236H224.246V45.0444H228.384V46.5231L228.382 46.5256Z" fill="#03523C"/>
<path d="M235.571 50.0418C235.101 50.3296 234.523 50.4748 233.836 50.4748C232.707 50.4748 231.782 50.0836 231.061 49.3012C230.311 48.5163 229.934 47.4411 229.934 46.0756C229.934 44.71 230.313 43.5905 231.073 42.7565C231.834 41.9248 232.838 41.509 234.085 41.509C235.168 41.509 236.039 41.7846 236.695 42.3333C237.352 42.8819 237.729 43.5684 237.825 44.3877H236.073C235.938 43.8071 235.608 43.3986 235.084 43.1674C234.791 43.0394 234.466 42.9754 234.107 42.9754C233.421 42.9754 232.857 43.2338 232.417 43.7529C231.976 44.2721 231.755 45.0496 231.755 46.0903C231.755 47.1311 231.994 47.8815 232.471 48.317C232.948 48.7525 233.492 48.969 234.1 48.969C234.707 48.969 235.187 48.7968 235.569 48.4523C235.95 48.1079 236.186 47.6552 236.275 47.0966H234.304V45.6745H237.854V50.246H236.676L236.496 49.1831C236.154 49.5866 235.844 49.872 235.571 50.0393V50.0418Z" fill="#03523C"/>
<path d="M245.487 46.5256H241.348V48.7154H246.065V50.2482H239.609V41.7278H245.858V43.236H241.348V45.0444H245.487V46.5231V46.5256Z" fill="#03523C"/>
<path d="M86.3222 56.5398C85.2298 60.88 82.7448 64.0785 79.6225 66.7185C76.4756 69.3586 72.694 71.413 68.9615 73.4453L68.8336 73.5216C66.2944 74.892 63.9103 76.2108 61.6762 77.6846C59.4176 76.1862 56.9817 74.8428 54.418 73.4453C46.9556 69.3856 39.2397 65.1955 37.0327 56.5423C35.8911 52.0495 35.9403 47.328 35.9919 42.7344C36.0165 41.6936 36.0165 40.7538 36.0165 39.7893V7.35114L54.1129 6.96978H54.2654C56.1944 6.96978 57.9954 7.70544 59.3659 9.05129C60.077 9.76235 60.6355 10.5989 61.0144 11.5388L61.6738 13.1626L62.3332 11.5388C62.7145 10.5989 63.273 9.76235 64.0087 9.05129C65.4038 7.68084 67.2835 6.92057 69.2371 6.96978L87.3581 7.35114V42.7319C87.4343 47.3009 87.486 52.0471 86.3173 56.5398H86.3222Z" fill="#03523C"/>
<path d="M48.8082 13.2759C49.5841 13.2759 50.2131 12.6469 50.2131 11.871C50.2131 11.0951 49.5841 10.4661 48.8082 10.4661C48.0323 10.4661 47.4033 11.0951 47.4033 11.871C47.4033 12.6469 48.0323 13.2759 48.8082 13.2759Z" fill="#BF3E94"/>
<path d="M47.7798 16.5211C48.0873 16.6834 48.4195 16.7671 48.7664 16.7671C49.5415 16.7671 50.2697 16.3464 50.6683 15.6722L52.7449 12.144L51.8223 11.615L49.7801 15.1998C49.5784 15.5443 49.2142 15.7485 48.8058 15.7485C48.3974 15.7485 48.0603 15.5541 47.8536 15.2244L45.7942 11.615L44.8716 12.1464L46.9531 15.7485C47.1573 16.0757 47.4427 16.3439 47.7823 16.5235L47.7798 16.5211Z" fill="#C8A634"/>
<path d="M50.2129 25.2324C50.2239 24.4565 49.6038 23.8187 48.828 23.8078C48.0522 23.7968 47.4144 24.4168 47.4034 25.1927C47.3924 25.9685 48.0125 26.6063 48.7883 26.6173C49.5641 26.6282 50.202 26.0082 50.2129 25.2324Z" fill="#BF3E94"/>
<path d="M49.8341 20.5585C49.5266 20.3962 49.1944 20.3125 48.8475 20.3125C48.0725 20.3125 47.3442 20.7332 46.9456 21.4074L44.869 24.9356L45.7917 25.4646L47.8338 21.8798C48.0356 21.5353 48.3997 21.3311 48.8081 21.3311C49.2043 21.3311 49.5537 21.5255 49.7603 21.8552L51.8197 25.4646L52.7424 24.9332L50.6608 21.3311C50.4566 21.0039 50.1712 20.7357 49.8317 20.5561L49.8341 20.5585Z" fill="#C8A634"/>
<path d="M55.5246 19.9438C56.3001 19.9182 56.908 19.2688 56.8824 18.4933C56.8568 17.7179 56.2074 17.11 55.432 17.1356C54.6565 17.1611 54.0486 17.8105 54.0742 18.586C54.0998 19.3615 54.7492 19.9694 55.5246 19.9438Z" fill="#BF3E94"/>
<path d="M50.8258 17.5127C50.6634 17.8203 50.5797 18.1524 50.5797 18.4993C50.5797 19.2744 51.0004 20.0026 51.6746 20.4012L55.2028 22.4778L55.7318 21.5552L52.147 19.513C51.8025 19.3113 51.5983 18.9471 51.5983 18.5387C51.5983 18.1426 51.7927 17.7932 52.1224 17.5865L55.7318 15.5271L55.2004 14.6045L51.5983 16.686C51.2711 16.8902 51.0029 17.1756 50.8233 17.5152L50.8258 17.5127Z" fill="#C8A634"/>
<path d="M42.1894 19.9463C42.9647 19.9154 43.5682 19.2619 43.5373 18.4866C43.5064 17.7113 42.8529 17.1078 42.0776 17.1387C41.3023 17.1696 40.6989 17.8231 40.7297 18.5984C40.7606 19.3737 41.4141 19.9771 42.1894 19.9463Z" fill="#BF3E94"/>
<path d="M46.7882 19.5669C46.9505 19.2594 47.0342 18.9272 47.0342 18.5803C47.0342 17.8053 46.6135 17.077 45.9393 16.6784L42.4111 14.6018L41.8821 15.5245L45.4669 17.5666C45.8114 17.7684 46.0156 18.1325 46.0156 18.5409C46.0156 18.9494 45.8212 19.2864 45.4915 19.4931L41.8821 21.5525L42.4135 22.4751L46.0156 20.3936C46.3428 20.1894 46.611 19.904 46.7906 19.5645L46.7882 19.5669Z" fill="#C8A634"/>
<path d="M90.3598 42.7565V42.1733C90.3352 41.386 90.3352 40.5741 90.3352 39.7867V7.19852C90.3352 5.67552 89.0927 4.38135 87.5426 4.35674L69.3183 4.00244H69.1141C66.3978 4.00244 63.8611 5.0432 61.9321 6.9205C61.8559 6.99677 61.755 7.07304 61.6787 7.17392C61.6024 7.07304 61.5262 6.99677 61.4499 6.9205C59.5209 5.0432 56.9572 4.00244 54.2409 4.00244L35.8148 4.35428C34.2918 4.38135 33.0493 5.67552 33.0493 7.19852V39.7867C33.0493 40.7512 33.0247 41.7403 33.0247 42.6039V42.7048C32.973 47.4755 32.8968 52.4013 34.1417 57.3C36.6809 67.1736 44.9528 71.691 52.9738 76.0557L53.0254 76.0803C55.5375 77.4508 57.8995 78.745 60.0302 80.1671L60.0819 80.2188C60.5642 80.5239 61.1227 80.701 61.6812 80.701C61.91 80.701 62.1388 80.6764 62.3406 80.6247C62.6703 80.5485 63 80.3959 63.3051 80.1942C65.512 78.7228 67.9995 77.377 70.3861 76.0582C78.4071 71.6934 86.7061 67.1761 89.2182 57.3025C90.4607 52.4284 90.4115 47.5297 90.3598 42.7589V42.7565ZM86.3223 56.5397C85.2298 60.8799 82.7448 64.0784 79.6225 66.7185C76.4757 69.3585 72.694 71.4129 68.9616 73.4452L68.8336 73.5215C66.2945 74.892 63.9103 76.2108 61.6763 77.6845C59.4176 76.1862 56.9818 74.8428 54.418 73.4452C46.9556 69.3856 39.2397 65.1955 37.0327 56.5422C35.8911 52.0495 35.9403 47.3279 35.992 42.7343C36.0166 41.6936 36.0166 40.7537 36.0166 39.7892V7.35107L54.1129 6.9697H54.2655C56.1945 6.9697 57.9955 7.70537 59.3659 9.05122C60.077 9.76228 60.6355 10.5988 61.0144 11.5387L61.6738 13.1626L62.3332 11.5387C62.7146 10.5988 63.2731 9.76228 64.0087 9.05122C65.4038 7.68076 67.2835 6.9205 69.2371 6.9697L87.3581 7.35107V42.7319C87.4344 47.3009 87.486 52.047 86.3173 56.5397H86.3223Z" fill="#C8A634"/>
<path d="M88.8071 42.7393L88.4873 42.7196H88.8071L88.7948 41.728C88.7874 41.0834 88.7801 40.4314 88.7801 39.7892V7.20594C88.7801 6.50718 88.2117 5.92652 87.5154 5.91176L69.2837 5.54516C66.9365 5.49595 64.6975 6.3817 63.0146 8.03018C62.5053 8.52964 62.0599 9.08324 61.6884 9.68358C61.3169 9.0857 60.874 8.52964 60.3647 8.03018C58.7236 6.42353 56.5609 5.54516 54.2604 5.54516H54.0956L35.8589 5.91176C35.1602 5.92652 34.5918 6.50718 34.5918 7.20594V39.7892C34.5918 40.7882 34.582 41.8142 34.5697 42.7196C34.5402 45.1357 34.5106 47.5961 34.6558 50.0566C34.6558 50.0566 34.6558 50.0615 34.6558 50.0639C34.6558 50.0664 34.6558 50.0689 34.6558 50.0713C34.6558 50.0959 34.6558 50.1205 34.6607 50.1476C34.7985 52.4087 35.0839 54.6698 35.6523 56.9014C38.0093 66.1378 46.0008 70.4928 53.7314 74.7001L53.8544 74.769C56.3813 76.1444 58.7654 77.4435 60.9577 78.9197C61.1693 79.0673 61.4202 79.1461 61.6859 79.1461C61.7942 79.1461 61.8975 79.1338 61.9787 79.1116C62.1337 79.0796 62.274 79.0157 62.4241 78.9148C64.6778 77.3992 67.2022 76.0238 69.6429 74.6976C71.1635 73.8709 72.6988 73.0368 74.1947 72.1585H74.2021L74.2095 72.1511C74.2464 72.1314 74.2833 72.1117 74.3177 72.0871C75.4692 71.4154 76.5961 70.7142 77.6836 69.9712H77.686C77.7598 69.922 77.8287 69.8728 77.9026 69.8186C78.5644 69.3635 79.2066 68.8911 79.8315 68.394C80.1022 68.1849 80.3679 67.9684 80.6287 67.7445C83.9183 64.9691 86.5312 61.5565 87.7196 56.9014C88.9105 52.2266 88.8563 47.4018 88.8047 42.7368L88.8071 42.7393ZM37.0375 56.5496C36.5577 54.6674 36.2871 52.7433 36.1419 50.807L46.0254 46.6267C46.2493 46.5332 46.424 46.3561 46.515 46.1297C46.606 45.9034 46.6036 45.6549 46.5101 45.4334C46.3157 44.9709 45.7793 44.7544 45.3143 44.9487L36.0312 48.8731C35.95 46.8211 35.9721 44.7667 35.9967 42.7368C36.009 41.6887 36.0189 40.7414 36.0189 39.7892V33.9876L45.927 40.2075C46.0721 40.2985 46.2394 40.3478 46.4117 40.3478C46.7291 40.3478 47.0169 40.1878 47.1842 39.9196C47.3146 39.713 47.354 39.4694 47.2999 39.2307C47.2458 38.9945 47.1031 38.7903 46.8964 38.6624L36.0189 31.8323V30.5627L47.3245 30.5873L49.9276 36.3889C50.0728 36.7162 50.4 36.9278 50.7592 36.9278C50.8872 36.9278 51.0151 36.9007 51.1308 36.8466C51.3547 36.7482 51.5244 36.5686 51.6105 36.3397C51.6966 36.1109 51.6893 35.8649 51.5909 35.641L49.3248 30.5897L54.1275 30.5996C55.1314 30.602 56.1082 30.7251 57.0456 30.9465L55.1437 35.951C55.0576 36.1773 55.065 36.4259 55.1634 36.6473C55.2643 36.8712 55.4439 37.041 55.6702 37.1271C55.776 37.1664 55.8843 37.1861 55.995 37.1861C56.3714 37.1861 56.7134 36.9499 56.8463 36.5981L58.79 31.4952C61.5482 32.5851 63.8413 34.6101 65.2757 37.1763L60.2983 39.1815C59.8308 39.3685 59.6044 39.9 59.7914 40.3674C59.9317 40.7144 60.2638 40.9383 60.6378 40.9383C60.7534 40.9383 60.8691 40.9161 60.9773 40.8718L66.0483 38.8297C66.592 40.2469 66.8922 41.7846 66.8922 43.3888V46.8014L60.7485 44.3779C60.2835 44.1934 59.7521 44.4247 59.5675 44.8921C59.383 45.3596 59.6118 45.8886 60.0793 46.0731L66.8922 48.7624V66.7283H55.8178C55.1289 66.7283 54.6565 66.9645 54.3465 67.2253C53.7929 66.8169 53.1704 66.7357 52.9515 66.721H43.7643C40.6223 64.0834 38.1398 60.8726 37.035 56.5471L37.0375 56.5496ZM66.8971 68.7631H55.8252C55.6112 68.7631 55.4119 68.7853 55.2249 68.8271C55.279 68.4285 55.5669 68.3719 55.8228 68.3719H66.8971V68.7631ZM45.8974 68.3621H52.9096C53.3943 68.4113 53.5321 68.6696 53.5666 68.8763C53.3697 68.8148 53.1655 68.7705 52.9564 68.7557H46.4584C46.269 68.6278 46.082 68.4974 45.8974 68.3621ZM61.6859 77.6895C59.4248 76.1739 56.989 74.8453 54.4105 73.4404C52.5972 72.4537 50.7666 71.4573 49.0074 70.3919H52.9072C53.2123 70.4263 53.569 70.5641 53.5739 71.0292C53.5862 71.4769 53.9504 71.8288 54.4105 71.8288H54.4129C54.8607 71.8189 55.2126 71.4499 55.2126 70.9922C55.2126 70.9111 55.2446 70.665 55.3774 70.5297C55.4857 70.419 55.6801 70.3968 55.8252 70.3968H66.8971V74.5746C65.0764 75.5809 63.3369 76.5823 61.6884 77.6895H61.6859ZM86.3344 56.5496C85.461 59.977 83.719 62.7031 81.4726 65.0011V31.1212L79.834 30.6316V66.534C79.7626 66.5955 79.6913 66.657 79.6199 66.716C79.0688 67.1811 78.4955 67.6264 77.905 68.0594V30.0583L76.2664 29.5687V69.1961C75.6291 69.6193 74.9796 70.0278 74.3202 70.4239V28.9856L72.684 28.4959V71.3835C71.4538 72.0871 70.2039 72.7687 68.9614 73.4453L68.8359 73.5117C68.7375 73.5658 68.6366 73.62 68.5382 73.6741V43.3938C68.5382 35.454 62.0771 28.9806 54.1349 28.9659L36.0238 28.929V7.34126L54.1177 6.97466H54.2752C56.1894 6.97466 57.9953 7.71279 59.3658 9.05125C60.0891 9.76231 60.6476 10.5964 61.0241 11.5264L61.6884 13.17L62.3503 11.5289C62.7267 10.5964 63.2852 9.76231 64.011 9.05125C65.4184 7.67096 67.2834 6.93037 69.2517 6.97466L72.6815 7.04355V14.5897L74.3177 15.0793V7.078L76.2639 7.11736V15.6624L77.9001 16.152V7.14935L79.8291 7.18872V16.7253L81.4677 17.2149V7.22316L87.3481 7.34126V39.7892C87.3481 40.7513 87.3579 41.7354 87.3702 42.6827V42.7368C87.4268 47.3107 87.4834 52.0421 86.3295 56.5521L86.3344 56.5496Z" fill="white"/>
<path d="M44.2835 63.719C44.3622 63.7264 44.441 63.7338 44.5221 63.7338C45.6662 63.7338 46.5987 62.8013 46.5987 61.6572C46.5987 61.0962 46.3724 60.5894 46.0107 60.2154C46.0402 60.2326 46.0673 60.2498 46.0968 60.2621C46.178 60.299 46.2617 60.3162 46.3502 60.3162C46.5987 60.3162 46.8251 60.1686 46.926 59.9373L50.7101 51.2865C50.779 51.1315 50.7814 50.9593 50.7199 50.8043C50.6584 50.6468 50.5403 50.5238 50.3878 50.4574C50.2328 50.3885 50.063 50.386 49.9055 50.4475C49.7481 50.5066 49.6251 50.6271 49.5586 50.7797L45.772 59.433C45.7056 59.588 45.7031 59.7602 45.7647 59.9152C45.7843 59.9693 45.8139 60.0161 45.8459 60.0604C45.5309 59.7971 45.1373 59.6273 44.7091 59.588C44.9552 59.583 45.1742 59.4354 45.2726 59.2115L49.9351 48.5653C50.0753 48.2479 49.9301 47.8764 49.6128 47.7361C49.5266 47.6992 49.4356 47.6845 49.3495 47.6845L49.7702 47.5959C49.8908 47.7337 50.0187 47.8616 50.1565 47.9822L50.0384 48.5259C49.9375 48.9048 50.1319 49.3034 50.4936 49.4535L51.3596 49.8127C51.7189 49.9628 52.1396 49.8201 52.3315 49.4904L52.6391 49.0131C52.8211 49.0254 53.0057 49.0279 53.1877 49.0156L53.4879 49.4806C53.6257 49.7242 53.8865 49.8742 54.1645 49.8742C54.2679 49.8742 54.3687 49.8546 54.4647 49.8152L55.3308 49.4584C55.6924 49.3083 55.8893 48.9122 55.7909 48.5432L55.6728 47.9896C55.8105 47.869 55.9385 47.7386 56.059 47.6008L56.5634 47.7115C56.5388 47.7189 56.5118 47.7263 56.4872 47.7361C56.1698 47.8764 56.0246 48.2479 56.1624 48.5653L60.8273 59.2115C60.9233 59.4354 61.1447 59.583 61.3908 59.588C60.9577 59.6273 60.5641 59.7996 60.2491 60.0628C60.382 59.8881 60.4189 59.6495 60.3254 59.433L56.5413 50.7797C56.4724 50.6271 56.3494 50.5066 56.1919 50.4475C56.0369 50.386 55.8647 50.3885 55.7121 50.4574C55.5571 50.5238 55.439 50.6468 55.3775 50.8043C55.316 50.9593 55.3209 51.1315 55.3874 51.2865L59.1715 59.9373C59.2724 60.1686 59.4987 60.3162 59.7497 60.3162C59.8358 60.3162 59.9219 60.299 60.0006 60.2621C60.0326 60.2498 60.0597 60.2326 60.0867 60.2129C59.7251 60.5869 59.5012 61.0962 59.5012 61.6572C59.5012 62.7004 60.2762 63.564 61.2801 63.7092C61.1324 63.8912 61.0906 64.1471 61.1964 64.371L61.3096 64.6171C61.5335 65.1018 62.0206 65.4167 62.5545 65.4315L62.8006 65.9777C62.9015 66.2065 63.1278 66.3517 63.3739 66.3517C63.4624 66.3517 63.551 66.3344 63.6297 66.2975C63.9471 66.1573 64.0898 65.7833 63.9496 65.4659L63.6962 64.8951C63.7848 64.7844 63.861 64.6613 63.9152 64.5211C64.0505 64.1643 64.0357 63.7731 63.8733 63.4262L63.7749 63.2122C63.679 63.0055 63.4846 62.8775 63.2705 62.8529C63.5116 62.5134 63.6544 62.1025 63.6544 61.6572C63.6544 60.5131 62.7219 59.5806 61.5778 59.5806C61.5433 59.5806 61.5064 59.5806 61.472 59.5855C61.5359 59.5781 61.5974 59.5609 61.6565 59.5363C61.9739 59.3961 62.1191 59.0245 61.9788 58.7071L57.3163 48.0609C57.245 47.901 57.117 47.7853 56.9669 47.7263C57.213 47.6746 57.427 47.5073 57.5279 47.2637L57.8871 46.4001C58.0397 46.036 57.897 45.6153 57.5648 45.4283L57.09 45.1207C57.1023 44.9386 57.1023 44.7541 57.09 44.5696L57.5574 44.2719C57.897 44.0775 58.0421 43.6568 57.8921 43.2926L57.5353 42.429C57.3852 42.0649 56.9866 41.868 56.62 41.9689L56.0664 42.0895C55.9459 41.9492 55.8155 41.8188 55.6777 41.6983L55.7958 41.1594C55.8991 40.7805 55.7047 40.382 55.3406 40.2294L54.477 39.8702C54.1153 39.7201 53.6946 39.8628 53.5051 40.1925L53.1976 40.6674C53.0155 40.6551 52.831 40.6551 52.6464 40.6674L52.3487 40.2023C52.1544 39.8603 51.7336 39.7176 51.3695 39.8653L50.5034 40.2245C50.1417 40.3746 49.9474 40.7732 50.0458 41.1398L50.1639 41.6934C50.0261 41.8115 49.8982 41.9419 49.7751 42.0796L49.2338 41.9615C48.8549 41.8607 48.4564 42.055 48.3063 42.4167L47.947 43.2828C47.797 43.6445 47.9372 44.0652 48.2669 44.2546L48.7442 44.5622C48.7319 44.7443 48.7319 44.9288 48.7442 45.1109L48.2767 45.411C47.9372 45.6054 47.7945 46.0261 47.9421 46.3878L48.3013 47.2539C48.4367 47.5861 48.7861 47.778 49.1281 47.7288C48.978 47.7878 48.8525 47.9034 48.7836 48.0609L44.1186 58.7071C44.0522 58.8597 44.0473 59.0319 44.1088 59.1869C44.1703 59.3444 44.2884 59.4674 44.4434 59.5363C44.5 59.5609 44.5615 59.5781 44.6255 59.5855C44.591 59.5806 44.5566 59.5806 44.5221 59.5806C43.3756 59.5806 42.4456 60.5131 42.4456 61.6572C42.4456 62.2698 42.7137 62.8185 43.1369 63.1999L42.6375 64.2726C42.5661 64.4251 42.5587 64.5974 42.6178 64.7548C42.6744 64.9123 42.79 65.0378 42.9426 65.1091C43.0262 65.1485 43.1173 65.1682 43.2083 65.1682C43.4519 65.1682 43.6758 65.0255 43.7791 64.8041L44.2835 63.719ZM62.6333 63.7411L62.7317 63.9552C62.7514 63.9946 62.7514 64.0364 62.7366 64.0758C62.7219 64.1176 62.6923 64.1471 62.653 64.1643C62.5791 64.1963 62.4857 64.1619 62.4512 64.0881L62.338 63.842C62.3011 63.7633 62.2495 63.6969 62.1904 63.6403C62.3257 63.5984 62.4537 63.5443 62.5767 63.4754C62.5767 63.5665 62.5939 63.6575 62.6333 63.7411ZM61.5778 60.8379C62.028 60.8379 62.3946 61.2045 62.3946 61.6547C62.3946 62.105 62.028 62.4716 61.5778 62.4716C61.1275 62.4716 60.7609 62.105 60.7609 61.6547C60.7609 61.2045 61.1275 60.8379 61.5778 60.8379ZM49.005 46.1959L49.5881 45.8219C49.7628 45.7088 49.8539 45.5045 49.8243 45.3003C49.7776 44.9928 49.7776 44.6803 49.8243 44.3752C49.8563 44.171 49.7628 43.9668 49.5906 43.8536L49.0075 43.4772L49.192 43.0318L49.8686 43.1794C50.0704 43.2237 50.282 43.145 50.405 42.9777C50.5895 42.7292 50.811 42.5077 51.0619 42.3232C51.2292 42.2002 51.308 41.9911 51.2637 41.7868L51.1185 41.1102L51.5614 40.9282L51.9354 41.5113C52.0461 41.686 52.2503 41.777 52.457 41.7475C52.7645 41.7007 53.077 41.7007 53.3846 41.7475C53.5888 41.7795 53.7955 41.6884 53.9062 41.5137L54.2826 40.9331L54.7255 41.1152L54.5779 41.7918C54.5336 41.9935 54.6123 42.2051 54.7796 42.3281C55.0281 42.5127 55.2496 42.7341 55.4341 42.9851C55.5547 43.1524 55.7663 43.2311 55.9705 43.1893L56.6471 43.0417L56.8292 43.4845L56.2485 43.8585C56.0738 43.9692 55.9803 44.1735 56.0098 44.3801C56.0566 44.6877 56.0566 45.0002 56.0098 45.3102C55.9779 45.5144 56.0713 45.7186 56.246 45.8318L56.8267 46.2058L56.6422 46.6486L55.968 46.501C55.7638 46.4567 55.5522 46.5355 55.4316 46.7028C55.2471 46.9513 55.0257 47.1727 54.7747 47.3572C54.6074 47.4803 54.5287 47.6894 54.573 47.8911L54.7181 48.5702L54.2728 48.7523L53.8988 48.1716C53.8004 48.0191 53.6355 47.928 53.4535 47.928C53.4289 47.928 53.4018 47.9305 53.3747 47.9354C53.0696 47.9797 52.7596 47.9797 52.4496 47.933C52.2454 47.9034 52.0412 47.9969 51.9305 48.1692L51.554 48.7498L51.1087 48.5653L51.2563 47.8887C51.3006 47.6869 51.2219 47.4778 51.0546 47.3523C50.8061 47.1678 50.5846 46.9488 50.4025 46.6978C50.2795 46.533 50.0704 46.4518 49.8662 46.4961L49.1896 46.6413L49.005 46.1959ZM44.5221 60.8379C44.9724 60.8379 45.339 61.2045 45.339 61.6547C45.339 62.105 44.9724 62.4716 44.5221 62.4716C44.0719 62.4716 43.7028 62.105 43.7028 61.6547C43.7028 61.2045 44.0694 60.8379 44.5221 60.8379Z" fill="white"/>
<path d="M52.9195 47.5247C53.2713 47.5247 53.6158 47.4558 53.9406 47.3229C55.3086 46.7571 55.963 45.1848 55.3996 43.8169C55.124 43.155 54.6098 42.6383 53.948 42.3627C53.2836 42.0872 52.5554 42.0872 51.8935 42.3603C51.2317 42.6334 50.715 43.1476 50.4394 43.8119C50.1638 44.4738 50.1638 45.2021 50.4369 45.8664C50.8528 46.8727 51.8271 47.5247 52.9195 47.5247ZM51.4137 44.2154C51.581 43.8144 51.8935 43.5019 52.297 43.3346C52.4939 43.2534 52.703 43.2116 52.9146 43.2116C53.5789 43.2116 54.1719 43.6077 54.4228 44.2204C54.7648 45.0495 54.3687 46.0042 53.5395 46.3462C53.1385 46.5135 52.6956 46.511 52.2921 46.3437C51.8911 46.1764 51.5786 45.8639 51.4113 45.4629C51.2464 45.0618 51.2464 44.6189 51.4137 44.2154Z" fill="white"/>
<path d="M67.6426 23.4447C67.896 23.4447 68.1027 23.4152 68.2602 23.3586C68.5603 23.2479 68.7104 23.0437 68.7104 22.7435C68.7104 22.5688 68.6366 22.4335 68.4865 22.3375C68.3364 22.244 68.1027 22.1604 67.7853 22.089L67.2416 21.9635C66.7052 21.838 66.3361 21.7027 66.1319 21.5576C65.785 21.314 65.6128 20.9302 65.6128 20.4085C65.6128 19.9337 65.7801 19.54 66.1147 19.2251C66.4493 18.9102 66.9414 18.7527 67.5909 18.7527C68.1322 18.7527 68.5948 18.9003 68.9786 19.198C69.3624 19.4933 69.5617 19.9238 69.5814 20.4873H68.548C68.5284 20.1674 68.3955 19.9411 68.1421 19.8082C67.9748 19.7196 67.7656 19.6753 67.5171 19.6753C67.2391 19.6753 67.0201 19.7319 66.8528 19.8476C66.688 19.9632 66.6043 20.1231 66.6043 20.3298C66.6043 20.5193 66.6855 20.662 66.8479 20.7555C66.9512 20.817 67.1751 20.8908 67.5171 20.9744L68.4029 21.1934C68.7916 21.2894 69.0844 21.4173 69.2812 21.5772C69.5888 21.8257 69.7413 22.1874 69.7413 22.6598C69.7413 23.1322 69.5617 23.5456 69.2025 23.8679C68.8433 24.1877 68.3364 24.3477 67.6795 24.3477C67.0226 24.3477 66.4813 24.1902 66.0975 23.8753C65.7136 23.5603 65.5217 23.1273 65.5217 22.5737H66.5477C66.5797 22.8148 66.6437 22.9969 66.7396 23.1175C66.9143 23.3364 67.212 23.4447 67.6377 23.4447H67.6426Z" fill="white"/>
<path d="M72.7284 22.1309H71.6187V24.2099H70.5681V18.9053H73.0925C73.4542 18.9127 73.7298 18.9569 73.9241 19.0431C74.1185 19.1267 74.2833 19.2497 74.4187 19.4146C74.5294 19.5499 74.618 19.6975 74.6844 19.8599C74.7508 20.0223 74.7828 20.2093 74.7828 20.4184C74.7828 20.6694 74.7213 20.9179 74.5983 21.1615C74.4753 21.4051 74.271 21.5773 73.9881 21.6782C74.2243 21.7766 74.3941 21.9168 74.4925 22.0964C74.5909 22.2785 74.6401 22.5541 74.6401 22.9256V23.2824C74.6401 23.5235 74.6499 23.6883 74.6672 23.7744C74.6942 23.9122 74.7607 24.0131 74.864 24.0771V24.2099H73.6805C73.6486 24.0918 73.624 23.9983 73.6116 23.9245C73.5846 23.7769 73.5698 23.6244 73.5674 23.4669L73.56 22.9748C73.5551 22.6377 73.496 22.4114 73.3804 22.2982C73.2647 22.185 73.0482 22.1284 72.7333 22.1284L72.7284 22.1309ZM73.3804 21.1664C73.5944 21.0655 73.7002 20.8662 73.7002 20.5685C73.7002 20.2462 73.5969 20.0321 73.3902 19.9214C73.2746 19.8599 73.0999 19.8279 72.8661 19.8279H71.6163V21.2525H72.8342C73.0753 21.2525 73.2574 21.223 73.3779 21.1664H73.3804Z" fill="white"/>
<path d="M79.2878 21.8922H76.788V23.2553H79.6372V24.2099H75.7374V18.9053H79.5092V19.8452H76.788V20.972H79.2878V21.8922Z" fill="white"/>
<path d="M84.1053 23.8136C83.7215 24.1753 83.2294 24.3573 82.6315 24.3573C81.891 24.3573 81.3103 24.1138 80.8871 23.6241C80.4639 23.1321 80.2523 22.4579 80.2523 21.6017C80.2523 20.6766 80.4934 19.963 80.9757 19.4611C81.394 19.0256 81.9279 18.8066 82.575 18.8066C83.441 18.8066 84.0733 19.0994 84.4744 19.685C84.6958 20.0147 84.8139 20.3444 84.8312 20.6741H83.756C83.6871 20.4207 83.596 20.2288 83.4878 20.0984C83.2909 19.8671 83.0031 19.7539 82.6192 19.7539C82.2354 19.7539 81.9205 19.9163 81.6941 20.2411C81.4678 20.5658 81.3546 21.0259 81.3546 21.6214C81.3546 22.2168 81.4727 22.6621 81.7113 22.9574C81.95 23.2526 82.2526 23.4027 82.6192 23.4027C82.9858 23.4027 83.2836 23.2748 83.4804 23.0213C83.5886 22.8836 83.6797 22.6793 83.7535 22.4062H84.8189C84.7254 22.9844 84.4892 23.4544 84.1078 23.816L84.1053 23.8136Z" fill="white"/>
</g>
<defs>
<clipPath id="clip0_2002_100">
<rect width="254.54" height="76.701" fill="white" transform="translate(33 4)"/>
</clipPath>
</defs>
</svg>