<?xml version="1.0" encoding="UTF-8"?>
<svg xmlns="http://www.w3.org/2000/svg" xmlns:xlink="http://www.w3.org/1999/xlink" width="128px" height="128px" viewBox="0 0 128 128" version="1.1">
<g id="surface1">
<path style=" stroke:none;fill-rule:nonzero;fill:rgb(89.019608%,89.019608%,89.019608%);fill-opacity:1;" d="M 26.667969 90.667969 L 26.667969 53.332031 L 37.332031 53.332031 L 37.332031 90.667969 Z M 58.667969 90.667969 L 58.667969 53.332031 L 69.332031 53.332031 L 69.332031 90.667969 Z M 10.667969 42.667969 L 10.667969 32 L 64 5.332031 L 117.332031 32 L 117.332031 42.667969 Z M 34.535156 32 L 93.464844 32 L 64 17.332031 Z M 10.667969 112 L 10.667969 101.332031 L 74.933594 101.332031 C 75.109375 103.199219 75.332031 105 75.601562 106.734375 C 75.867188 108.464844 76.265625 110.222656 76.800781 112 Z M 90.667969 70.667969 L 90.667969 53.332031 L 101.332031 53.332031 L 101.332031 65.332031 Z M 106.667969 128 C 100.535156 126.488281 95.445312 122.957031 91.398438 117.398438 C 87.355469 111.84375 85.332031 105.6875 85.332031 98.933594 L 85.332031 85.332031 L 106.667969 74.667969 L 128 85.332031 L 128 98.933594 C 128 105.6875 125.976562 111.84375 121.933594 117.398438 C 117.890625 122.957031 112.800781 126.488281 106.667969 128 Z M 102.800781 112 L 121.332031 93.601562 L 115.734375 88 L 102.800781 100.667969 L 97.601562 95.464844 L 92 101.199219 Z M 34.535156 32 L 93.464844 32 Z M 34.535156 32 "/>
</g>
</svg>
